<svg width="32" height="32" viewBox="0 0 32 32" fill="none" xmlns="http://www.w3.org/2000/svg">
<g clip-path="url(#clip0_27_2364)">
<path d="M18.1382 22.5454C17.8111 22.5759 17.4826 22.5021 17.2 22.3345C17.0981 22.2298 17.021 22.1036 16.9744 21.9651C16.9278 21.8267 16.913 21.6795 16.931 21.5345C16.9386 21.29 16.9678 21.0466 17.0182 20.8072C17.067 20.5326 17.1301 20.2607 17.2073 19.9927L18.0655 17.0399C18.154 16.7485 18.2125 16.4487 18.24 16.1454C18.24 15.8181 18.2836 15.5926 18.2836 15.4617C18.2927 15.1738 18.2365 14.8876 18.1194 14.6244C18.0023 14.3612 17.8272 14.1278 17.6073 13.9417C17.0592 13.521 16.3767 13.3142 15.6873 13.3599C15.1932 13.3674 14.703 13.4482 14.2327 13.5999C13.7188 13.7599 13.1781 13.9514 12.6109 14.1745L12.3636 15.1345C12.5309 15.0763 12.7346 15.0109 12.9673 14.9381C13.1893 14.8724 13.4194 14.8381 13.6509 14.8363C13.9757 14.8011 14.3025 14.8809 14.5745 15.0617C14.666 15.1709 14.7344 15.2973 14.7756 15.4336C14.8168 15.5698 14.8301 15.713 14.8145 15.8545C14.8137 16.0991 14.7869 16.3429 14.7345 16.5817C14.6836 16.8363 14.6181 17.1054 14.5381 17.389L13.6727 20.3562C13.603 20.6321 13.5471 20.9112 13.5055 21.1926C13.4715 21.4335 13.4545 21.6766 13.4545 21.9199C13.4528 22.2097 13.5174 22.496 13.6435 22.757C13.7695 23.0179 13.9537 23.2465 14.1818 23.4253C14.7383 23.8526 15.4305 24.0644 16.1308 24.0217C16.624 24.0318 17.1154 23.9605 17.5854 23.8107C17.9975 23.6701 18.5478 23.4689 19.2363 23.2071L19.4691 22.2907C19.2826 22.3681 19.0905 22.4313 18.8945 22.4798C18.6466 22.5364 18.3921 22.5585 18.1382 22.5454ZM19.0473 8.54543C18.6515 8.18193 18.1299 7.98637 17.5927 8C17.0557 7.98789 16.5348 8.18324 16.1381 8.54543C15.4111 9.17231 15.33 10.2699 15.9569 10.9969C16.0128 11.0617 16.0733 11.1223 16.1381 11.1782C16.9664 11.919 18.219 11.919 19.0472 11.1782C19.7742 10.5451 19.8504 9.44262 19.2173 8.71562C19.1647 8.65502 19.1078 8.59816 19.0473 8.54543Z" fill="white"/>
<path d="M16 0C7.16344 0 0 7.16344 0 16C0 24.8366 7.16344 32 16 32C24.8366 32 32 24.8366 32 16C32 7.16344 24.8366 0 16 0ZM16 30.5454C7.96675 30.5454 1.45456 24.0332 1.45456 16C1.45456 7.96675 7.96675 1.45456 16 1.45456C24.0332 1.45456 30.5454 7.96675 30.5454 16C30.5454 24.0332 24.0332 30.5454 16 30.5454Z" fill="white"/>
</g>
<defs>
<clipPath id="clip0_27_2364">
<rect width="32" height="32" fill="white"/>
</clipPath>
</defs>
</svg>
