<svg width="32" height="32" viewBox="0 0 32 32" fill="none" xmlns="http://www.w3.org/2000/svg">
<path d="M20.26 6.185H11.74L12.215 5C12.29 4.81 12.475 4.685 12.675 4.685H19.325C19.525 4.685 19.71 4.81 19.785 5L20.26 6.185ZM26.965 19.17C26.93 18.75 26.875 18.33 26.79 17.915C26.67 17.315 26.025 16.96 25.455 17.175L21.93 18.51C20.895 18.9 21.225 20.5 22.335 20.44L26.02 20.25C26.1532 20.2417 26.2834 20.2071 26.4031 20.1482C26.5228 20.0893 26.6297 20.0073 26.7175 19.9069C26.8054 19.8065 26.8725 19.6897 26.915 19.5632C26.9574 19.4367 26.9744 19.3031 26.965 19.17ZM11.93 23.315H20.07C20.715 23.315 20.715 22.315 20.07 22.315H11.93C11.285 22.315 11.285 23.315 11.93 23.315ZM3.50001 20.03C3.50001 18.2905 3.87001 16.57 4.58501 14.9905L4.76501 14.5955L3.73001 13.9355C3.65914 13.8907 3.60083 13.8286 3.5606 13.755C3.52036 13.6814 3.49951 13.5988 3.50001 13.515V13.085C3.50001 12.81 3.72501 12.585 4.00001 12.585H5.71001C6.09501 11.82 6.53001 11.08 7.02001 10.375L8.53501 8.24C8.76601 7.91394 9.07178 7.64799 9.42672 7.46443C9.78166 7.28087 10.1754 7.18505 10.575 7.185H21.425C22.235 7.185 23 7.58 23.465 8.24L24.98 10.375C25.47 11.08 25.905 11.82 26.29 12.585H28C28.275 12.585 28.5 12.81 28.5 13.085V13.515C28.5 13.685 28.415 13.845 28.27 13.935L27.235 14.595L27.415 14.99C28.1307 16.5738 28.5006 18.292 28.5 20.03V23.815C28.5 24.09 28.275 24.315 28 24.315H4.00001C3.72501 24.315 3.50001 24.09 3.50001 23.815V20.03ZM5.03501 19.17C5.02551 19.3031 5.04247 19.4368 5.08492 19.5633C5.12737 19.6898 5.19447 19.8066 5.28234 19.907C5.37021 20.0074 5.47711 20.0895 5.59685 20.1483C5.7166 20.2072 5.84683 20.2418 5.98001 20.25L9.66501 20.44C10.77 20.5 11.11 18.9 10.07 18.51L6.54501 17.175C5.97501 16.96 5.33001 17.315 5.21001 17.915C5.12501 18.33 5.07001 18.75 5.03501 19.17ZM25.32 14.315L21.835 9.395C21.74 9.265 21.59 9.185 21.425 9.185H10.575C10.41 9.185 10.26 9.265 10.165 9.395L6.68001 14.315H25.32ZM7.50001 25.315V26.815C7.50001 27.09 7.27501 27.315 7.00001 27.315H5.00001C4.72501 27.315 4.50001 27.09 4.50001 26.815V25.315H7.50001ZM27.5 25.315V26.815C27.5 27.09 27.275 27.315 27 27.315H25C24.725 27.315 24.5 27.09 24.5 26.815V25.315H27.5Z" fill="white"/>
</svg>
