<svg width="16" height="16" viewBox="0 0 16 16" fill="none" xmlns="http://www.w3.org/2000/svg">
<path d="M7.21256 12.0625H6.15756C6.07468 12.0625 5.99519 12.0954 5.93659 12.154C5.87798 12.2126 5.84506 12.2921 5.84506 12.375C5.84506 12.4579 5.87798 12.5374 5.93659 12.596C5.99519 12.6546 6.07468 12.6875 6.15756 12.6875H9.84256C9.92544 12.6875 10.0049 12.6546 10.0635 12.596C10.1221 12.5374 10.1551 12.4579 10.1551 12.375C10.1551 12.2921 10.1221 12.2126 10.0635 12.154C10.0049 12.0954 9.92544 12.0625 9.84256 12.0625H8.78756C10.0376 10.855 12.8151 7.905 12.8151 5.74C12.8151 2.955 10.6551 0.6875 8.00006 0.6875C5.34506 0.6875 3.18506 2.955 3.18506 5.75C3.18506 7.905 5.97006 10.855 7.21256 12.0625ZM8.00006 1.3125C10.3101 1.3125 12.1901 3.3125 12.1901 5.74C12.1901 7.8775 8.87256 11.13 8.00006 11.95C7.12756 11.13 3.81006 7.8775 3.81006 5.75C3.81006 3.3 5.69006 1.3125 8.00006 1.3125Z" fill="#1E1E1E"/>
<path d="M10.1552 5.45999C10.1552 5.03377 10.0288 4.61713 9.79203 4.26274C9.55524 3.90835 9.21867 3.63214 8.8249 3.46903C8.43112 3.30593 7.99783 3.26325 7.5798 3.3464C7.16177 3.42955 6.77778 3.6348 6.4764 3.93618C6.17502 4.23756 5.96977 4.62154 5.88662 5.03957C5.80347 5.4576 5.84615 5.8909 6.00926 6.28468C6.17236 6.67845 6.44857 7.01502 6.80296 7.25181C7.15735 7.48861 7.574 7.61499 8.00022 7.61499C8.57155 7.61433 9.1193 7.38708 9.5233 6.98308C9.9273 6.57908 10.1546 6.03133 10.1552 5.45999ZM6.47022 5.45999C6.47219 5.15782 6.5636 4.863 6.73291 4.61271C6.90223 4.36242 7.14187 4.16788 7.42161 4.05361C7.70134 3.93934 8.00866 3.91046 8.30479 3.97062C8.60092 4.03078 8.8726 4.17728 9.08557 4.39165C9.29855 4.60602 9.44328 4.87865 9.50151 5.17516C9.55974 5.47168 9.52886 5.7788 9.41277 6.05779C9.29668 6.33677 9.10058 6.57514 8.84919 6.74282C8.5978 6.9105 8.30239 6.99999 8.00022 6.99999C7.79854 6.99967 7.59892 6.95954 7.41278 6.88191C7.22665 6.80428 7.05767 6.69067 6.91553 6.5476C6.77339 6.40453 6.66089 6.23482 6.58447 6.04818C6.50806 5.86155 6.46923 5.66166 6.47022 5.45999Z" fill="#1E1E1E"/>
<path d="M12.6602 9.75C12.5936 9.70722 12.5132 9.6913 12.4354 9.70544C12.3575 9.71959 12.2879 9.76275 12.2406 9.82621C12.1934 9.88968 12.1719 9.96871 12.1806 10.0474C12.1894 10.126 12.2276 10.1984 12.2877 10.25C12.7402 10.585 13.2877 11.14 13.2877 11.8725C13.2877 13.3975 10.8702 14.6875 8.00766 14.6875C5.14516 14.6875 2.72016 13.3975 2.72016 11.8725C2.72016 11.14 3.26016 10.585 3.72016 10.25C3.7802 10.1984 3.81844 10.126 3.82717 10.0474C3.83589 9.96871 3.81445 9.88968 3.76717 9.82621C3.71989 9.76275 3.6503 9.71959 3.57243 9.70544C3.49457 9.6913 3.41424 9.70722 3.34766 9.75C2.53266 10.3525 2.09766 11.0875 2.09766 11.875C2.09766 13.805 4.69016 15.315 8.00266 15.315C11.3152 15.315 13.9077 13.815 13.9077 11.875C13.9052 11.085 13.4752 10.35 12.6602 9.75Z" fill="#1E1E1E"/>
</svg>
