<svg width="14" height="14" viewBox="0 0 14 14" fill="none" xmlns="http://www.w3.org/2000/svg">
<path d="M8.86375 2.70593H5.13625L5.34407 2.1875C5.37688 2.10437 5.45782 2.04968 5.54532 2.04968H8.45469C8.54219 2.04968 8.62313 2.10437 8.65594 2.1875L8.86375 2.70593ZM11.7972 8.38687C11.7819 8.20312 11.7578 8.01937 11.7206 7.83781C11.6681 7.57531 11.3859 7.41999 11.1366 7.51406L9.59438 8.09812C9.14157 8.26875 9.28594 8.96875 9.77157 8.9425L11.3838 8.85937C11.442 8.85573 11.499 8.8406 11.5513 8.81483C11.6037 8.78907 11.6505 8.75318 11.6889 8.70926C11.7274 8.66533 11.7567 8.61422 11.7753 8.55889C11.7939 8.50356 11.8013 8.44509 11.7972 8.38687ZM5.21938 10.2003H8.78063C9.06282 10.2003 9.06282 9.76281 8.78063 9.76281H5.21938C4.93719 9.76281 4.93719 10.2003 5.21938 10.2003ZM1.53125 8.76312C1.53125 8.00209 1.69313 7.24937 2.00594 6.55834L2.08469 6.38553L1.63188 6.09678C1.60087 6.07717 1.57536 6.05 1.55776 6.01781C1.54016 5.98563 1.53103 5.94949 1.53125 5.91281V5.72468C1.53125 5.60437 1.62969 5.50593 1.75 5.50593H2.49813C2.66657 5.17125 2.85688 4.8475 3.07125 4.53906L3.73407 3.605C3.83513 3.46234 3.96891 3.34599 4.12419 3.26569C4.27948 3.18538 4.45174 3.14346 4.62657 3.14343H9.37344C9.72782 3.14343 10.0625 3.31625 10.2659 3.605L10.9288 4.53906C11.1431 4.8475 11.3334 5.17125 11.5019 5.50593H12.25C12.3703 5.50593 12.4688 5.60437 12.4688 5.72468V5.91281C12.4688 5.98718 12.4316 6.05718 12.3681 6.09656L11.9153 6.38531L11.9941 6.55812C12.3072 7.25104 12.469 8.00274 12.4688 8.76312V10.4191C12.4688 10.5394 12.3703 10.6378 12.25 10.6378H1.75C1.62969 10.6378 1.53125 10.5394 1.53125 10.4191V8.76312ZM2.20282 8.38687C2.19866 8.4451 2.20608 8.50358 2.22465 8.55892C2.24323 8.61427 2.27258 8.66538 2.31102 8.70932C2.34947 8.75325 2.39623 8.78913 2.44862 8.81489C2.50101 8.84064 2.55799 8.85576 2.61625 8.85937L4.22844 8.9425C4.71188 8.96875 4.86063 8.26875 4.40563 8.09812L2.86344 7.51406C2.61407 7.41999 2.33188 7.57531 2.27938 7.83781C2.24219 8.01937 2.21813 8.20312 2.20282 8.38687ZM11.0775 6.26281L9.55282 4.11031C9.51125 4.05343 9.44563 4.01843 9.37344 4.01843H4.62657C4.55438 4.01843 4.48875 4.05343 4.44719 4.11031L2.9225 6.26281H11.0775ZM3.28125 11.0753V11.7316C3.28125 11.8519 3.18282 11.9503 3.0625 11.9503H2.1875C2.06719 11.9503 1.96875 11.8519 1.96875 11.7316V11.0753H3.28125ZM12.0313 11.0753V11.7316C12.0313 11.8519 11.9328 11.9503 11.8125 11.9503H10.9375C10.8172 11.9503 10.7188 11.8519 10.7188 11.7316V11.0753H12.0313Z" fill="white"/>
</svg>
