<svg width="16" height="16" viewBox="0 0 16 16" fill="none" xmlns="http://www.w3.org/2000/svg">
<g clip-path="url(#clip0_25_291)">
<path d="M8 0C3.58177 0 0 3.58177 0 8C0 12.4182 3.58177 16 8 16C12.4182 16 16 12.4182 16 8C15.9951 3.58387 12.4161 0.00493333 8 0ZM14.9189 10.8026L12.6438 11.1952C12.9042 10.2401 13.0448 9.25641 13.0623 8.26667H15.46C15.4299 9.1372 15.2467 9.99562 14.9188 10.8026H14.9189ZM0.54 8.26667H2.93767C2.95526 9.25641 3.09588 10.2401 3.3563 11.1952L1.08117 10.8026C0.75326 9.99563 0.570061 9.1372 0.539967 8.26667H0.54ZM1.08117 5.1974L3.3563 4.80483C3.09586 5.75987 2.95521 6.74358 2.9376 7.73333H0.54C0.570083 6.8628 0.753271 6.00438 1.08117 5.1974ZM8.26667 4.28163C9.22493 4.29385 10.1808 4.38114 11.1254 4.5427L12.0667 4.70507C12.3559 5.6892 12.5115 6.70774 12.5293 7.73333H8.26667V4.28163ZM11.2163 4.01707C10.2416 3.85047 9.25538 3.7606 8.26667 3.7483V0.5483C9.79543 0.695167 11.1234 2.09493 11.876 4.13203L11.2163 4.01707ZM7.73333 3.7483C6.74471 3.7606 5.75857 3.85047 4.784 4.01707L4.12397 4.13123C4.87657 2.09367 6.20457 0.6934 7.73333 0.547167V3.7483ZM4.87487 4.5427C5.81941 4.38115 6.77516 4.29387 7.73333 4.28167V7.73333H3.4707C3.48853 6.70774 3.64413 5.6892 3.93333 4.70507L4.87487 4.5427ZM3.4707 8.26667H7.73333V11.7183C6.77507 11.7061 5.81923 11.6188 4.8746 11.4573L3.93333 11.2949C3.64413 10.3108 3.48853 9.29226 3.4707 8.26667ZM4.7837 11.9829C5.75836 12.1498 6.74458 12.2401 7.73333 12.2531V15.4531C6.20457 15.3061 4.87657 13.9064 4.12397 11.8693L4.7837 11.9829ZM8.26667 12.2531C9.25532 12.2401 10.2414 12.1497 11.216 11.9829L11.876 11.8688C11.1234 13.9063 9.79543 15.3066 8.26667 15.4529V12.2531ZM11.1251 11.4573C10.1806 11.6189 9.22485 11.7061 8.26667 11.7183V8.26667H12.5293C12.5115 9.29226 12.3559 10.3108 12.0667 11.2949L11.1251 11.4573ZM13.0623 7.73333C13.0448 6.74359 12.9041 5.75987 12.6437 4.80483L14.9188 5.1974C15.2467 6.00437 15.4299 6.8628 15.46 7.73333H13.0623ZM14.6491 4.60967L12.4682 4.23333C12.0762 2.95426 11.3427 1.80636 10.3466 0.913267C12.2093 1.53484 13.754 2.86194 14.6491 4.60967H14.6491ZM5.6534 0.913233C4.65734 1.80633 3.9238 2.95424 3.53177 4.23333L1.3509 4.60967C2.24604 2.86193 3.79074 1.53482 5.6534 0.913233ZM1.3509 11.3904L3.53177 11.7667C3.9238 13.0457 4.65735 14.1936 5.6534 15.0867C3.79075 14.4652 2.24604 13.1381 1.3509 11.3903V11.3904ZM10.3466 15.0867C11.3426 14.1936 12.0762 13.0457 12.4682 11.7667L14.6491 11.3903C13.754 13.1381 12.2093 14.4652 10.3466 15.0867V15.0867Z" fill="#1E1E1E"/>
</g>
<defs>
<clipPath id="clip0_25_291">
<rect width="16" height="16" fill="white"/>
</clipPath>
</defs>
</svg>
