<svg width="14" height="14" viewBox="0 0 14 14" fill="none" xmlns="http://www.w3.org/2000/svg">
<g clip-path="url(#clip0_27_1594)">
<path d="M13.6092 8.37101C13.5984 8.34772 13.5867 8.32482 13.5743 8.30235L12.8513 7L13.5745 5.69737C13.6464 5.56721 13.6908 5.42369 13.7051 5.27568C13.7193 5.12768 13.7029 4.97833 13.6571 4.83688C13.6108 4.69543 13.536 4.565 13.4372 4.45367C13.3384 4.34234 13.2178 4.25248 13.0829 4.18966L11.7322 3.56077L11.5517 2.08205C11.479 1.48818 10.9386 1.0657 10.3447 1.13841C10.3197 1.14147 10.2948 1.1454 10.2701 1.15019L8.80779 1.43538L7.79281 0.345206C7.38515 -0.0927232 6.69966 -0.117277 6.26173 0.290383C6.24281 0.307995 6.22452 0.326281 6.20691 0.345206L5.19193 1.43538L3.72961 1.15019C3.14236 1.03568 2.57346 1.41892 2.45897 2.00617C2.45408 2.03133 2.45006 2.05662 2.44694 2.08205L2.26648 3.56077L0.915721 4.18966C0.373286 4.44215 0.138271 5.08655 0.390759 5.62898C0.401614 5.65228 0.413262 5.67516 0.425731 5.69764L1.14841 7L0.425731 8.30263C0.135318 8.82573 0.323959 9.48522 0.847062 9.77563C0.869538 9.7881 0.892425 9.79978 0.915721 9.81061L2.26648 10.4395L2.44694 11.9182C2.51954 12.5121 3.05984 12.9347 3.65373 12.8621C3.67916 12.859 3.70448 12.855 3.72961 12.8501L5.19193 12.5649L6.20691 13.6548C6.61457 14.0927 7.30006 14.1173 7.73799 13.7096C7.75691 13.692 7.7752 13.6737 7.79281 13.6548L8.80807 12.5646L10.2704 12.8498C10.8576 12.9643 11.4265 12.5811 11.541 11.9938C11.5459 11.9687 11.5499 11.9434 11.5531 11.9179L11.7335 10.4392L13.0843 9.81033C13.6267 9.55785 13.8617 8.91342 13.6092 8.37101ZM12.809 9.15445C12.8009 9.15902 12.7925 9.16328 12.784 9.16722L11.2545 9.87814C11.1997 9.90362 11.1524 9.94261 11.1169 9.99146C11.0814 10.0403 11.0589 10.0974 11.0516 10.1573L10.8471 11.8321C10.822 12.0362 10.6362 12.1814 10.432 12.1564C10.4234 12.1553 10.4148 12.1539 10.4063 12.1523L8.74983 11.8291C8.69058 11.8175 8.62937 11.8213 8.57196 11.8399C8.51455 11.8586 8.46285 11.8916 8.42171 11.9357L7.27329 13.1703C7.13308 13.3208 6.89743 13.3291 6.74693 13.1889C6.74052 13.1829 6.73432 13.1767 6.72834 13.1703L5.57801 11.9357C5.53687 11.8916 5.48516 11.8586 5.42776 11.8399C5.37035 11.8213 5.30914 11.8175 5.24989 11.8291L3.59399 12.152C3.39209 12.1913 3.19658 12.0595 3.15729 11.8576C3.15562 11.849 3.15426 11.8404 3.15322 11.8318L2.94869 10.157C2.94137 10.0971 2.9189 10.04 2.8834 9.99118C2.8479 9.94234 2.80055 9.90334 2.7458 9.87787L1.21622 9.16695C1.02963 9.08043 0.948506 8.85901 1.03502 8.67242C1.03896 8.66394 1.04322 8.6556 1.04779 8.64743L1.86809 7.17226C1.89739 7.11948 1.91277 7.0601 1.91277 6.99972C1.91277 6.93935 1.89739 6.87997 1.86809 6.82719L1.04779 5.35202C0.947467 5.17246 1.01167 4.94559 1.19123 4.84524C1.19941 4.84068 1.20775 4.83641 1.21622 4.8325L2.7458 4.12158C2.80055 4.09611 2.8479 4.05711 2.8834 4.00826C2.9189 3.95942 2.94137 3.90234 2.94869 3.8424L3.15322 2.16763C3.17826 1.96349 3.36409 1.81829 3.56823 1.84337C3.57687 1.84443 3.58546 1.8458 3.59399 1.84744L5.24989 2.17091C5.30914 2.18245 5.37035 2.17872 5.42776 2.16006C5.48516 2.14141 5.53687 2.10844 5.57801 2.06427L6.72643 0.829728C6.86664 0.67923 7.10229 0.670918 7.25278 0.811134C7.25921 0.817122 7.26542 0.823329 7.27138 0.829728L8.42171 2.06427C8.46285 2.10844 8.51456 2.14141 8.57196 2.16006C8.62937 2.17872 8.69058 2.18245 8.74983 2.17091L10.4057 1.84799C10.6076 1.8084 10.8033 1.93994 10.8428 2.14176C10.8446 2.15051 10.846 2.15932 10.8471 2.16818L11.0516 3.84295C11.0589 3.90288 11.0814 3.95997 11.1169 4.00881C11.1524 4.05766 11.1997 4.09665 11.2545 4.12212L12.784 4.83305C12.9706 4.91956 13.0518 5.14099 12.9652 5.32758C12.9613 5.33605 12.957 5.34439 12.9525 5.35257V5.35229L12.1322 6.82746C12.1029 6.88025 12.0875 6.93962 12.0875 7C12.0875 7.06037 12.1029 7.11975 12.1322 7.17253L12.9525 8.6477C13.0528 8.82724 12.9886 9.05413 12.809 9.15445Z" fill="white"/>
<path d="M8.80613 4.63865C8.6502 4.51946 8.42718 4.54921 8.30794 4.7051L5.1271 8.86318C5.00781 9.01909 5.0375 9.24221 5.19341 9.36151C5.34932 9.48081 5.57244 9.45111 5.69174 9.2952L8.87258 5.13685C8.99177 4.98091 8.96202 4.7579 8.80613 4.63865ZM8.63715 7.07056C7.9848 7.07132 7.45615 7.59998 7.45538 8.25233V8.50389C7.45538 9.15657 7.9845 9.68566 8.63718 9.68564C9.28984 9.68564 9.81893 9.15654 9.81893 8.50389V8.25233C9.81816 7.59998 9.28951 7.0713 8.63715 7.07056ZM9.108 8.50389C9.108 8.76392 8.89719 8.97474 8.63715 8.97474C8.37712 8.97474 8.1663 8.76392 8.1663 8.50389V8.25233C8.1663 7.9923 8.37712 7.78148 8.63715 7.78148C8.89719 7.78148 9.108 7.9923 9.108 8.25233V8.50389ZM5.3625 4.31436C4.70985 4.31436 4.18076 4.84345 4.18076 5.49611V5.74739C4.18076 6.40007 4.70985 6.92917 5.3625 6.92919C6.01518 6.92919 6.54428 6.4001 6.5443 5.74745V5.49614C6.5443 4.84345 6.01518 4.31436 5.3625 4.31436ZM5.83338 5.74742C5.83338 6.00745 5.62256 6.21827 5.36253 6.21827C5.1025 6.21827 4.89168 6.00745 4.89168 5.74742V5.49614C4.89168 5.2361 5.1025 5.02529 5.36253 5.02529C5.62256 5.02529 5.83338 5.2361 5.83338 5.49614V5.74742Z" fill="white"/>
</g>
<defs>
<clipPath id="clip0_27_1594">
<rect width="14" height="14" fill="white"/>
</clipPath>
</defs>
</svg>
