<svg width="14" height="14" viewBox="0 0 14 14" fill="none" xmlns="http://www.w3.org/2000/svg">
<path d="M4.77454 6.27083C5.02194 6.29874 5.27242 6.277 5.51132 6.20689C5.75021 6.13677 5.97271 6.01969 6.16579 5.8625C6.55954 5.54458 6.80746 5.0925 6.86287 4.58792C6.91829 4.08333 6.77245 3.59042 6.45454 3.19667C6.21881 2.905 5.90195 2.68971 5.54397 2.57797C5.18599 2.46622 4.80292 2.46305 4.44313 2.56883C4.08334 2.67461 3.76296 2.88462 3.52242 3.17233C3.28188 3.46005 3.13198 3.81258 3.09162 4.18542C3.06378 4.43282 3.08555 4.68328 3.15566 4.92217C3.22578 5.16105 3.34282 5.38356 3.49995 5.57667C3.82079 5.97042 4.27287 6.21833 4.77454 6.27083ZM3.96371 4.27875C3.99287 4.0075 4.12704 3.76542 4.33704 3.59333C4.52079 3.44458 4.74245 3.36875 4.97579 3.36875C5.01371 3.36875 5.04871 3.37167 5.08662 3.37458C5.35787 3.40375 5.59996 3.53792 5.77204 3.75083C5.94412 3.96375 6.01996 4.22917 5.99079 4.50042C5.96162 4.77167 5.82746 5.01375 5.61746 5.18583C5.40746 5.35792 5.13912 5.43375 4.86787 5.40458C4.59662 5.37542 4.35454 5.24125 4.18246 5.02833C4.01329 4.81542 3.93454 4.55 3.96371 4.27875ZM10.6633 8.42333C10.4276 8.13167 10.1107 7.91637 9.75272 7.80463C9.39474 7.69289 9.01167 7.68971 8.65188 7.7955C8.29209 7.90128 7.97171 8.11128 7.73117 8.399C7.49063 8.68672 7.34073 9.03924 7.30037 9.41208C7.24496 9.91667 7.39079 10.4096 7.7087 10.8033C8.02662 11.1971 8.4787 11.445 8.98329 11.5004C9.23069 11.5283 9.48117 11.5066 9.72007 11.4365C9.95896 11.3664 10.1815 11.2493 10.3745 11.0921C11.1883 10.4329 11.3195 9.23708 10.6633 8.42333ZM9.8262 10.4067C9.61329 10.5788 9.34787 10.6546 9.07662 10.6254C8.80537 10.5963 8.56329 10.4621 8.39121 10.2492C8.21912 10.0363 8.14329 9.77083 8.17246 9.49958C8.20162 9.22833 8.33579 8.98625 8.54579 8.81417C8.73537 8.6625 8.95996 8.58958 9.18454 8.58958C9.48204 8.58958 9.77954 8.72083 9.98079 8.96875C10.3337 9.40917 10.2637 10.0538 9.8262 10.4067ZM10.9666 3.68375C10.815 3.49417 10.5408 3.465 10.3512 3.61667L3.08287 9.47333C2.89329 9.625 2.86412 9.89917 3.01579 10.0888C3.10329 10.1967 3.22871 10.2521 3.35704 10.2521C3.45329 10.2521 3.54954 10.22 3.6312 10.1558L10.8995 4.30208C11.0891 4.1475 11.1183 3.87333 10.9666 3.68375Z" fill="white"/>
</svg>
