<svg width="24" height="24" viewBox="0 0 24 24" fill="none" xmlns="http://www.w3.org/2000/svg">
<g clip-path="url(#clip0_36_4924)">
<path d="M12.0007 6.67206e-08C9.57463 -0.000274833 7.225 0.848933 5.35966 2.40023C3.49431 3.95153 2.23102 6.10699 1.78903 8.49251C1.34704 10.878 1.75427 13.343 2.94002 15.4596C4.12577 17.5762 6.0152 19.2108 8.28037 20.0798V23.0117C8.27472 23.2594 8.36436 23.4999 8.53081 23.6835C8.69725 23.8671 8.92781 23.9799 9.17493 23.9985C9.19199 23.9985 9.20924 24 9.22631 24C9.46836 24.0007 9.70127 23.9076 9.87618 23.7403C9.96903 23.6518 10.043 23.5455 10.0936 23.4276C10.1442 23.3098 10.1705 23.1829 10.1707 23.0546V20.6027C11.6824 20.8761 13.236 20.8091 14.7186 20.4066V23.1272C14.7169 23.2429 14.7382 23.3577 14.7813 23.4651C14.8244 23.5725 14.8884 23.6702 14.9696 23.7526C15.0508 23.835 15.1476 23.9005 15.2543 23.9451C15.361 23.9898 15.4756 24.0128 15.5913 24.0128C15.707 24.0128 15.8215 23.9898 15.9282 23.9451C16.035 23.9005 16.1317 23.835 16.213 23.7526C16.2942 23.6702 16.3582 23.5725 16.4013 23.4651C16.4444 23.3577 16.4657 23.2429 16.464 23.1272V19.7599C18.5917 18.7471 20.3117 17.0407 21.3413 14.9211C22.3709 12.8015 22.649 10.3947 22.1298 8.09611C21.6106 5.79755 20.3251 3.74393 18.4843 2.27265C16.6436 0.801374 14.3572 -6.72197e-05 12.0007 6.67206e-08ZM16.1874 4.73569C16.1025 4.68891 16.0065 4.66583 15.9095 4.66887C15.8126 4.6719 15.7182 4.70094 15.6364 4.75294C14.0554 5.75213 13.7239 9.07256 13.6676 10.9629C13.6038 12.9579 13.9615 14.9439 14.7176 16.7912V17.7261C13.2624 18.2668 11.6788 18.3605 10.17 17.9949V13.6956L11.5575 10.5352C11.5679 10.5116 11.5733 10.4861 11.5732 10.4602V5.26875C11.5732 5.10945 11.51 4.95667 11.3973 4.84402C11.2847 4.73138 11.1319 4.66809 10.9726 4.66809C10.8133 4.66809 10.6605 4.73138 10.5479 4.84402C10.4352 4.95667 10.3719 5.10945 10.3719 5.26875V8.99625H9.82612V5.26875C9.82612 5.10945 9.76283 4.95667 9.65019 4.84402C9.53754 4.73138 9.38477 4.66809 9.22546 4.66809C9.06616 4.66809 8.91338 4.73138 8.80073 4.84402C8.68809 4.95667 8.6248 5.10945 8.6248 5.26875V8.99625H8.07805V5.26875C8.07805 5.10945 8.01477 4.95667 7.90213 4.84402C7.78948 4.73138 7.6367 4.66809 7.4774 4.66809C7.31809 4.66809 7.16532 4.73138 7.05267 4.84402C6.94003 4.95667 6.87674 5.10945 6.87674 5.26875V10.4599C6.87671 10.4857 6.88208 10.5112 6.89249 10.5349L8.27999 13.6952V17.2687C6.77986 16.4585 5.58525 15.1807 4.87773 13.6295C4.1702 12.0782 3.98845 10.3384 4.36009 8.67449C4.73173 7.01053 5.63645 5.51339 6.93673 4.41061C8.23702 3.30782 9.86178 2.65969 11.5641 2.56472C13.2664 2.46975 14.9532 2.93312 16.3681 3.88442C17.783 4.83572 18.8486 6.22294 19.403 7.83523C19.9574 9.44752 19.9703 11.1967 19.4398 12.817C18.9092 14.4373 17.8641 15.8401 16.4634 16.8122V5.20388C16.4643 5.10813 16.439 5.01397 16.3904 4.9315C16.3418 4.84902 16.2716 4.78133 16.1874 4.73569ZM9.79574 23.0544C9.79594 23.132 9.78028 23.2089 9.74973 23.2802C9.71918 23.3516 9.67438 23.4159 9.61808 23.4693C9.56178 23.5228 9.49517 23.5641 9.42232 23.5909C9.34947 23.6177 9.27192 23.6293 9.19443 23.625C9.04393 23.6097 8.90476 23.5381 8.8048 23.4245C8.70484 23.311 8.65147 23.1639 8.65537 23.0126V13.6564C8.65538 13.6306 8.65002 13.605 8.63962 13.5814L7.25212 10.4211V5.26875C7.25212 5.2089 7.27589 5.15151 7.31821 5.10919C7.36053 5.06687 7.41793 5.04309 7.47777 5.04309C7.53762 5.04309 7.59502 5.06687 7.63734 5.10919C7.67966 5.15151 7.70343 5.2089 7.70343 5.26875V9.18375C7.70343 9.23348 7.72318 9.28117 7.75835 9.31633C7.79351 9.3515 7.8412 9.37125 7.89093 9.37125H8.8123C8.86203 9.37125 8.90972 9.3515 8.94489 9.31633C8.98005 9.28117 8.9998 9.23348 8.9998 9.18375V5.26875C8.9998 5.20893 9.02357 5.15155 9.06587 5.10925C9.10817 5.06695 9.16554 5.04319 9.22537 5.04319C9.28519 5.04319 9.34256 5.06695 9.38486 5.10925C9.42717 5.15155 9.45093 5.20893 9.45093 5.26875V9.18375C9.45093 9.23348 9.47068 9.28117 9.50585 9.31633C9.54101 9.3515 9.5887 9.37125 9.63843 9.37125H10.5604C10.6101 9.37125 10.6578 9.3515 10.6929 9.31633C10.7281 9.28117 10.7479 9.23348 10.7479 9.18375V5.26875C10.7479 5.2089 10.7716 5.15151 10.814 5.10919C10.8563 5.06687 10.9137 5.04309 10.9735 5.04309C11.0334 5.04309 11.0908 5.06687 11.1331 5.10919C11.1754 5.15151 11.1992 5.2089 11.1992 5.26875V10.4205L9.81168 13.5808C9.80128 13.6044 9.79592 13.63 9.79593 13.6558L9.79574 23.0544ZM10.1707 20.2209V18.3791C11.68 18.7284 13.2576 18.6402 14.7186 18.1249V20.0154C13.2381 20.4295 11.6826 20.4996 10.1707 20.2209ZM15.591 23.625C15.459 23.6249 15.3325 23.5723 15.2392 23.479C15.1459 23.3857 15.0935 23.2592 15.0934 23.1272V16.7507C15.0934 16.7234 15.0874 16.6965 15.0759 16.6717C14.3379 14.8654 13.9862 12.9246 14.0436 10.9742C14.136 7.884 14.7898 5.73206 15.8374 5.07C15.8625 5.05374 15.8916 5.04459 15.9215 5.04354C15.9514 5.04248 15.981 5.04955 16.0072 5.064C16.0324 5.07755 16.0535 5.09776 16.068 5.12242C16.0825 5.14709 16.0899 5.17526 16.0896 5.20388V19.6461C16.0895 19.6477 16.0895 19.6493 16.0896 19.6509V23.1272C16.0894 23.2593 16.0368 23.3859 15.9433 23.4793C15.8498 23.5726 15.7231 23.625 15.591 23.625ZM16.4638 19.3431V17.2648C17.9795 16.2819 19.1284 14.8262 19.7323 13.1236C20.3362 11.421 20.3612 9.56674 19.8035 7.84847C19.2458 6.13019 18.1366 4.64403 16.648 3.62058C15.1593 2.59714 13.3745 2.09364 11.5705 2.18821C9.76645 2.28278 8.04407 2.97014 6.6706 4.14363C5.29714 5.31711 4.34939 6.91111 3.97442 8.67827C3.59944 10.4454 3.81822 12.287 4.59679 13.9171C5.37536 15.5472 6.67019 16.8748 8.28037 17.6938V19.677C6.15328 18.8257 4.3826 17.2705 3.26398 15.271C2.14536 13.2715 1.7465 10.9488 2.13402 8.69071C2.52153 6.4326 3.67196 4.37577 5.3932 2.86364C7.11445 1.35152 9.30233 0.475621 11.5915 0.382207C13.8808 0.288792 16.1327 0.983512 17.9715 2.35037C19.8102 3.71723 21.1244 5.67349 21.6946 7.89251C22.2648 10.1115 22.0565 12.459 21.1045 14.543C20.1525 16.627 18.5145 18.3213 16.4638 19.3431Z" fill="black"/>
</g>
<defs>
<clipPath id="clip0_36_4924">
<rect width="24" height="24" fill="white"/>
</clipPath>
</defs>
</svg>
