<svg width="21" height="21" viewBox="0 0 21 21" fill="none" xmlns="http://www.w3.org/2000/svg">
<g clip-path="url(#clip0_27_2821)">
<path d="M11.9031 14.7955C11.6884 14.8155 11.4729 14.767 11.2874 14.657C11.2205 14.5883 11.1699 14.5055 11.1393 14.4146C11.1088 14.3238 11.099 14.2272 11.1108 14.132C11.1158 13.9716 11.135 13.8119 11.1681 13.6548C11.2001 13.4745 11.2415 13.2961 11.2922 13.1202L11.8553 11.1825C11.9134 10.9912 11.9518 10.7945 11.9699 10.5954C11.9699 10.3807 11.9985 10.2327 11.9985 10.1468C12.0044 9.95782 11.9676 9.76997 11.8907 9.59724C11.8139 9.42452 11.699 9.27139 11.5547 9.14928C11.195 8.87317 10.7471 8.73744 10.2947 8.76747C9.97042 8.77235 9.64871 8.82543 9.3401 8.92497C9.00283 9.02997 8.64804 9.15564 8.27578 9.30203L8.11353 9.93203C8.22328 9.89384 8.35695 9.8509 8.50965 9.80315C8.65533 9.75999 8.80635 9.7375 8.95828 9.73634C9.17141 9.71324 9.38589 9.76559 9.56441 9.88428C9.62441 9.95588 9.6693 10.0389 9.69637 10.1283C9.72344 10.2177 9.73213 10.3117 9.72191 10.4045C9.72138 10.565 9.70378 10.725 9.66941 10.8818C9.63598 11.0488 9.59304 11.2254 9.54054 11.4115L8.9726 13.3588C8.92683 13.5398 8.89019 13.723 8.86284 13.9077C8.84053 14.0658 8.82936 14.2253 8.82941 14.3849C8.82826 14.5751 8.87068 14.763 8.95341 14.9343C9.03613 15.1055 9.15698 15.2556 9.30667 15.3729C9.67189 15.6533 10.1261 15.7923 10.5857 15.7642C10.9094 15.7709 11.2319 15.7241 11.5403 15.6258C11.8108 15.5335 12.1719 15.4015 12.6237 15.2297L12.7765 14.6283C12.6541 14.6791 12.528 14.7206 12.3994 14.7524C12.2367 14.7895 12.0697 14.804 11.9031 14.7955ZM12.4997 5.60795C12.2399 5.3694 11.8977 5.24107 11.5451 5.25001C11.1927 5.24206 10.8508 5.37027 10.5905 5.60795C10.1134 6.01934 10.0602 6.73962 10.4716 7.21675C10.5083 7.25928 10.548 7.29903 10.5905 7.3357C11.1341 7.82185 11.9561 7.82185 12.4996 7.3357C12.9767 6.92025 13.0267 6.19673 12.6113 5.71964C12.5767 5.67987 12.5394 5.64256 12.4997 5.60795Z" fill="#BEBEBE"/>
<path d="M10.5 0C4.70101 0 0 4.70101 0 10.5C0 16.299 4.70101 21 10.5 21C16.299 21 21 16.299 21 10.5C21 4.70101 16.299 0 10.5 0ZM10.5 20.0454C5.22818 20.0454 0.954557 15.7718 0.954557 10.5C0.954557 5.22818 5.22818 0.954557 10.5 0.954557C15.7718 0.954557 20.0454 5.22818 20.0454 10.5C20.0454 15.7718 15.7718 20.0454 10.5 20.0454Z" fill="#BEBEBE"/>
</g>
<defs>
<clipPath id="clip0_27_2821">
<rect width="21" height="21" fill="white"/>
</clipPath>
</defs>
</svg>
