<svg width="16" height="16" viewBox="0 0 16 16" fill="none" xmlns="http://www.w3.org/2000/svg">
<path d="M7.21251 12.0625H6.15751C6.07462 12.0625 5.99514 12.0954 5.93653 12.154C5.87793 12.2126 5.84501 12.2921 5.84501 12.375C5.84501 12.4579 5.87793 12.5374 5.93653 12.596C5.99514 12.6546 6.07462 12.6875 6.15751 12.6875H9.8425C9.92538 12.6875 10.0049 12.6546 10.0635 12.596C10.1221 12.5374 10.155 12.4579 10.155 12.375C10.155 12.2921 10.1221 12.2126 10.0635 12.154C10.0049 12.0954 9.92538 12.0625 9.8425 12.0625H8.78751C10.0375 10.855 12.815 7.905 12.815 5.74C12.815 2.955 10.655 0.6875 8.00001 0.6875C5.34501 0.6875 3.18501 2.955 3.18501 5.75C3.18501 7.905 5.97001 10.855 7.21251 12.0625ZM8.00001 1.3125C10.31 1.3125 12.19 3.3125 12.19 5.74C12.19 7.8775 8.87251 11.13 8.00001 11.95C7.12751 11.13 3.81001 7.8775 3.81001 5.75C3.81001 3.3 5.69001 1.3125 8.00001 1.3125Z" fill="white"/>
<path d="M10.155 5.45999C10.155 5.03377 10.0286 4.61713 9.79182 4.26274C9.55502 3.90835 9.21846 3.63214 8.82469 3.46903C8.43091 3.30593 7.99761 3.26325 7.57958 3.3464C7.16155 3.42955 6.77757 3.6348 6.47619 3.93618C6.1748 4.23756 5.96956 4.62154 5.88641 5.03957C5.80326 5.4576 5.84593 5.8909 6.00904 6.28468C6.17215 6.67845 6.44836 7.01502 6.80275 7.25181C7.15714 7.48861 7.57378 7.61499 8 7.61499C8.57134 7.61433 9.11909 7.38708 9.52309 6.98308C9.92708 6.57908 10.1543 6.03133 10.155 5.45999ZM6.47 5.45999C6.47198 5.15782 6.56339 4.863 6.7327 4.61271C6.90202 4.36242 7.14165 4.16788 7.42139 4.05361C7.70113 3.93934 8.00844 3.91046 8.30457 3.97062C8.6007 4.03078 8.87239 4.17728 9.08536 4.39165C9.29834 4.60602 9.44306 4.87865 9.50129 5.17516C9.55952 5.47168 9.52865 5.7788 9.41256 6.05779C9.29647 6.33677 9.10036 6.57514 8.84898 6.74282C8.59759 6.9105 8.30218 6.99999 8 6.99999C7.79833 6.99967 7.5987 6.95954 7.41257 6.88191C7.22644 6.80428 7.05746 6.69067 6.91532 6.5476C6.77318 6.40453 6.66068 6.23482 6.58426 6.04818C6.50784 5.86155 6.46901 5.66166 6.47 5.45999Z" fill="white"/>
<path d="M12.66 9.75C12.5934 9.70722 12.5131 9.6913 12.4352 9.70544C12.3574 9.71959 12.2878 9.76275 12.2405 9.82621C12.1932 9.88968 12.1718 9.96871 12.1805 10.0474C12.1892 10.126 12.2275 10.1984 12.2875 10.25C12.74 10.585 13.2875 11.14 13.2875 11.8725C13.2875 13.3975 10.87 14.6875 8.0075 14.6875C5.145 14.6875 2.72 13.3975 2.72 11.8725C2.72 11.14 3.26 10.585 3.72 10.25C3.78004 10.1984 3.81829 10.126 3.82701 10.0474C3.83574 9.96871 3.8143 9.88968 3.76702 9.82621C3.71974 9.76275 3.65014 9.71959 3.57228 9.70544C3.49442 9.6913 3.41408 9.70722 3.3475 9.75C2.5325 10.3525 2.0975 11.0875 2.0975 11.875C2.0975 13.805 4.69 15.315 8.0025 15.315C11.315 15.315 13.9075 13.815 13.9075 11.875C13.905 11.085 13.475 10.35 12.66 9.75Z" fill="white"/>
</svg>
