<svg width="14" height="14" viewBox="0 0 14 14" fill="none" xmlns="http://www.w3.org/2000/svg">
<g clip-path="url(#clip0_33_2978)">
<path d="M8.56764 8.34578H6.63972V7.82749H7.35926C7.9091 7.82749 8.43642 7.60906 8.82521 7.22027C9.21401 6.83148 9.43243 6.30416 9.43243 5.75432C9.43243 5.20448 9.21401 4.67716 8.82521 4.28837C8.43642 3.89957 7.9091 3.68115 7.35926 3.68115H6.20222C6.08619 3.68115 5.97491 3.72725 5.89286 3.80929C5.81082 3.89134 5.76472 4.00262 5.76472 4.11865V6.95249H5.00464C4.88861 6.95249 4.77733 6.99858 4.69528 7.08063C4.61323 7.16267 4.56714 7.27395 4.56714 7.38999C4.56714 7.50602 4.61323 7.6173 4.69528 7.69934C4.77733 7.78139 4.88861 7.82749 5.00464 7.82749H5.76472V8.34578H5.00464C4.88861 8.34578 4.77733 8.39187 4.69528 8.47392C4.61323 8.55596 4.56714 8.66724 4.56714 8.78328C4.56714 8.89931 4.61323 9.01059 4.69528 9.09264C4.77733 9.17468 4.88861 9.22078 5.00464 9.22078H5.76472V9.88374C5.76472 9.99977 5.81082 10.111 5.89286 10.1931C5.97491 10.2751 6.08619 10.3212 6.20222 10.3212C6.31825 10.3212 6.42953 10.2751 6.51158 10.1931C6.59363 10.111 6.63972 9.99977 6.63972 9.88374V9.22078H8.56764C8.68367 9.22078 8.79495 9.17468 8.877 9.09264C8.95904 9.01059 9.00514 8.89931 9.00514 8.78328C9.00514 8.66724 8.95904 8.55596 8.877 8.47392C8.79495 8.39187 8.68367 8.34578 8.56764 8.34578ZM6.63972 4.55615H7.35926C7.67704 4.55615 7.9818 4.68239 8.2065 4.90709C8.4312 5.13179 8.55743 5.43655 8.55743 5.75432C8.55743 6.07209 8.4312 6.37685 8.2065 6.60155C7.9818 6.82625 7.67704 6.95249 7.35926 6.95249H6.63972V4.55615Z" fill="white"/>
<path d="M6.99998 14C5.89533 13.9999 4.80639 13.7383 3.82219 13.2367C2.83799 12.7351 1.98647 12.0077 1.33725 11.114C0.688033 10.2203 0.259549 9.18556 0.0868291 8.0945C-0.0858907 7.00344 0.00205839 5.88699 0.343486 4.83643C0.684913 3.78587 1.27012 2.83102 2.05128 2.04996C2.83243 1.2689 3.78734 0.683804 4.83794 0.3425C5.88854 0.00119561 7.005 -0.0866226 8.09604 0.0862249C9.18709 0.259073 10.2217 0.687678 11.1154 1.337C11.1619 1.3708 11.2012 1.41342 11.2312 1.46243C11.2612 1.51144 11.2812 1.56588 11.2902 1.62263C11.2991 1.67938 11.2968 1.73735 11.2834 1.79321C11.2699 1.84906 11.2456 1.90173 11.2118 1.94819C11.178 1.99465 11.1354 2.034 11.0864 2.06399C11.0373 2.09397 10.9829 2.11402 10.9262 2.12297C10.8115 2.14105 10.6944 2.11285 10.6006 2.04458C9.38343 1.16136 7.88355 0.757475 6.38746 0.910075C4.89137 1.06268 3.50392 1.76107 2.49014 2.87184C1.47635 3.98262 0.907291 5.42793 0.891648 6.93171C0.876005 8.43548 1.41488 9.89232 2.40533 11.024C3.39579 12.1556 4.76841 12.8827 6.26101 13.0664C7.7536 13.2501 9.26156 12.8775 10.4968 12.0197C11.7321 11.162 12.6081 9.87933 12.9576 8.41663C13.307 6.95393 13.1054 5.41377 12.3911 4.09033C12.3401 3.98864 12.3307 3.87106 12.3649 3.76253C12.3991 3.65401 12.4743 3.56309 12.5744 3.50905C12.6745 3.45502 12.7918 3.44212 12.9013 3.47311C13.0108 3.50409 13.1039 3.57651 13.1609 3.675C13.7359 4.74149 14.0243 5.93894 13.9979 7.15028C13.9716 8.36162 13.6313 9.54539 13.0105 10.5859C12.3896 11.6263 11.5094 12.4879 10.4559 13.0863C9.40238 13.6848 8.2116 13.9996 6.99998 14Z" fill="white"/>
<path d="M11.9936 3.17918C11.9304 3.17926 11.8679 3.16564 11.8104 3.13926C11.753 3.11287 11.7019 3.07435 11.6608 3.02634L11.582 2.93564C11.543 2.89283 11.5129 2.84272 11.4934 2.78818C11.4739 2.73365 11.4655 2.67579 11.4685 2.61796C11.4715 2.56013 11.486 2.50348 11.5111 2.45129C11.5362 2.39911 11.5714 2.35242 11.6147 2.31395C11.658 2.27547 11.7085 2.24597 11.7633 2.22716C11.818 2.20835 11.876 2.20059 11.9338 2.20435C11.9916 2.20811 12.048 2.2233 12.0999 2.24905C12.1518 2.2748 12.198 2.31059 12.236 2.35434L12.3258 2.4573C12.3801 2.52084 12.4151 2.59862 12.4267 2.68143C12.4382 2.76425 12.4257 2.84862 12.3908 2.92458C12.3558 3.00053 12.2998 3.06488 12.2294 3.11C12.159 3.15512 12.0772 3.17913 11.9936 3.17918Z" fill="white"/>
</g>
<defs>
<clipPath id="clip0_33_2978">
<rect width="14" height="14" fill="white"/>
</clipPath>
</defs>
</svg>
