<svg width="15" height="15" viewBox="0 0 15 15" fill="none" xmlns="http://www.w3.org/2000/svg">
<path d="M7.96875 2.34375H5.625C5.50068 2.34375 5.38145 2.39314 5.29354 2.48104C5.20564 2.56895 5.15625 2.68818 5.15625 2.8125V7.03125H4.21875C4.09443 7.03125 3.9752 7.08064 3.88729 7.16854C3.79939 7.25645 3.75 7.37568 3.75 7.5C3.75 7.62432 3.79939 7.74355 3.88729 7.83146C3.9752 7.91936 4.09443 7.96875 4.21875 7.96875H5.15625V9.375H4.21875C4.09443 9.375 3.9752 9.42439 3.88729 9.51229C3.79939 9.6002 3.75 9.71943 3.75 9.84375C3.75 9.96807 3.79939 10.0873 3.88729 10.1752C3.9752 10.2631 4.09443 10.3125 4.21875 10.3125H5.15625V12.1875C5.15625 12.3118 5.20564 12.431 5.29354 12.519C5.38145 12.6069 5.50068 12.6562 5.625 12.6562C5.74932 12.6562 5.86855 12.6069 5.95646 12.519C6.04436 12.431 6.09375 12.3118 6.09375 12.1875V10.3125H7.5C7.62432 10.3125 7.74355 10.2631 7.83146 10.1752C7.91936 10.0873 7.96875 9.96807 7.96875 9.84375C7.96875 9.71943 7.91936 9.6002 7.83146 9.51229C7.74355 9.42439 7.62432 9.375 7.5 9.375H6.09375V7.96875H7.96875C8.71467 7.96875 9.43004 7.67243 9.95749 7.14499C10.4849 6.61754 10.7812 5.90217 10.7812 5.15625C10.7812 4.41033 10.4849 3.69496 9.95749 3.16751C9.43004 2.64007 8.71467 2.34375 7.96875 2.34375ZM7.96875 7.03125H6.09375V3.28125H7.96875C8.46603 3.28125 8.94294 3.47879 9.29457 3.83042C9.64621 4.18206 9.84375 4.65897 9.84375 5.15625C9.84375 5.65353 9.64621 6.13044 9.29457 6.48208C8.94294 6.83371 8.46603 7.03125 7.96875 7.03125Z" fill="#1E1E1E"/>
</svg>
