<svg width="16" height="16" viewBox="0 0 16 16" fill="none" xmlns="http://www.w3.org/2000/svg">
<g clip-path="url(#clip0_25_275)">
<path d="M15.8599 15.184L11.9716 11.2958C13.0146 10.0967 13.6461 8.53215 13.6461 6.82217C13.6461 3.05809 10.5845 0 6.82394 0C3.05986 0 0.00177002 3.06164 0.00177002 6.82217C0.00177002 10.5827 3.06341 13.6443 6.82394 13.6443C8.53392 13.6443 10.0984 13.0129 11.2976 11.9698L15.1858 15.8581C15.278 15.9503 15.4022 16 15.5228 16C15.6435 16 15.7676 15.9539 15.8599 15.8581C16.0443 15.6736 16.0443 15.3685 15.8599 15.184ZM0.956094 6.82217C0.956094 3.5867 3.58847 0.957871 6.82039 0.957871C10.0559 0.957871 12.6847 3.59024 12.6847 6.82217C12.6847 10.0541 10.0559 12.69 6.82039 12.69C3.58847 12.69 0.956094 10.0576 0.956094 6.82217Z" fill="#1E1E1E"/>
</g>
<defs>
<clipPath id="clip0_25_275">
<rect width="16" height="16" fill="white"/>
</clipPath>
</defs>
</svg>
