<svg width="16" height="17" viewBox="0 0 16 17" fill="none" xmlns="http://www.w3.org/2000/svg">
<path d="M1.6256 3.7H9.6V4.02C9.6 4.27461 9.70115 4.51879 9.88118 4.69882C10.0612 4.87886 10.3054 4.98 10.56 4.98H11.84C12.0946 4.98 12.3388 4.87886 12.5188 4.69882C12.6989 4.51879 12.8 4.27461 12.8 4.02V3.7H14.2912C14.3761 3.7 14.4575 3.66628 14.5175 3.60627C14.5775 3.54626 14.6112 3.46487 14.6112 3.38C14.6112 3.29513 14.5775 3.21374 14.5175 3.15372C14.4575 3.09371 14.3761 3.06 14.2912 3.06H12.8V2.74C12.8 2.48539 12.6989 2.24121 12.5188 2.06118C12.3388 1.88114 12.0946 1.78 11.84 1.78H10.56C10.3054 1.78 10.0612 1.88114 9.88118 2.06118C9.70115 2.24121 9.6 2.48539 9.6 2.74V3.06H1.6256C1.54073 3.06 1.45934 3.09371 1.39933 3.15372C1.33932 3.21374 1.3056 3.29513 1.3056 3.38C1.3056 3.46487 1.33932 3.54626 1.39933 3.60627C1.45934 3.66628 1.54073 3.7 1.6256 3.7ZM10.24 2.74C10.24 2.65513 10.2737 2.57374 10.3337 2.51372C10.3937 2.45371 10.4751 2.42 10.56 2.42H11.84C11.9249 2.42 12.0063 2.45371 12.0663 2.51372C12.1263 2.57374 12.16 2.65513 12.16 2.74V4.02C12.16 4.10487 12.1263 4.18626 12.0663 4.24627C12.0063 4.30628 11.9249 4.34 11.84 4.34H10.56C10.4751 4.34 10.3937 4.30628 10.3337 4.24627C10.2737 4.18626 10.24 4.10487 10.24 4.02V2.74ZM14.336 13.3H11.52V12.98C11.52 12.7254 11.4189 12.4812 11.2388 12.3012C11.0588 12.1211 10.8146 12.02 10.56 12.02H9.28C9.02539 12.02 8.78122 12.1211 8.60118 12.3012C8.42115 12.4812 8.32 12.7254 8.32 12.98V13.3H1.632C1.54713 13.3 1.46574 13.3337 1.40573 13.3937C1.34572 13.4537 1.312 13.5351 1.312 13.62C1.312 13.7049 1.34572 13.7863 1.40573 13.8463C1.46574 13.9063 1.54713 13.94 1.632 13.94H8.32V14.26C8.32 14.5146 8.42115 14.7588 8.60118 14.9388C8.78122 15.1189 9.02539 15.22 9.28 15.22H10.56C10.8146 15.22 11.0588 15.1189 11.2388 14.9388C11.4189 14.7588 11.52 14.5146 11.52 14.26V13.94H14.336C14.4209 13.94 14.5023 13.9063 14.5623 13.8463C14.6223 13.7863 14.656 13.7049 14.656 13.62C14.656 13.5351 14.6223 13.4537 14.5623 13.3937C14.5023 13.3337 14.4209 13.3 14.336 13.3ZM10.88 14.26C10.88 14.3449 10.8463 14.4263 10.7863 14.4863C10.7263 14.5463 10.6449 14.58 10.56 14.58H9.28C9.19513 14.58 9.11374 14.5463 9.05373 14.4863C8.99372 14.4263 8.96 14.3449 8.96 14.26V12.98C8.96 12.8951 8.99372 12.8137 9.05373 12.7537C9.11374 12.6937 9.19513 12.66 9.28 12.66H10.56C10.6449 12.66 10.7263 12.6937 10.7863 12.7537C10.8463 12.8137 10.88 12.8951 10.88 12.98V14.26ZM5.44 10.1H6.72C6.97461 10.1 7.21879 9.99886 7.39883 9.81882C7.57886 9.63879 7.68 9.39461 7.68 9.14V8.82H14.368C14.4529 8.82 14.5343 8.78628 14.5943 8.72627C14.6543 8.66626 14.688 8.58487 14.688 8.5C14.688 8.41513 14.6543 8.33374 14.5943 8.27372C14.5343 8.21371 14.4529 8.18 14.368 8.18H7.68V7.86C7.68 7.60539 7.57886 7.36121 7.39883 7.18118C7.21879 7.00114 6.97461 6.9 6.72 6.9H5.44C5.1854 6.9 4.94122 7.00114 4.76118 7.18118C4.58115 7.36121 4.48 7.60539 4.48 7.86V8.18H1.664C1.57913 8.18 1.49774 8.21371 1.43773 8.27372C1.37772 8.33374 1.344 8.41513 1.344 8.5C1.344 8.58487 1.37772 8.66626 1.43773 8.72627C1.49774 8.78628 1.57913 8.82 1.664 8.82H4.48V9.14C4.48 9.39461 4.58115 9.63879 4.76118 9.81882C4.94122 9.99886 5.1854 10.1 5.44 10.1ZM5.12 7.86C5.12 7.77513 5.15372 7.69374 5.21373 7.63372C5.27374 7.57371 5.35513 7.54 5.44 7.54H6.72C6.80487 7.54 6.88627 7.57371 6.94628 7.63372C7.00629 7.69374 7.04 7.77513 7.04 7.86V9.14C7.04 9.22487 7.00629 9.30626 6.94628 9.36627C6.88627 9.42628 6.80487 9.46 6.72 9.46H5.44C5.35513 9.46 5.27374 9.42628 5.21373 9.36627C5.15372 9.30626 5.12 9.22487 5.12 9.14V7.86Z" fill="white"/>
</svg>
