<svg width="15" height="14" viewBox="0 0 15 14" fill="none" xmlns="http://www.w3.org/2000/svg">
<path d="M7.30979 0.585411C7.36966 0.401148 7.63034 0.401148 7.69021 0.58541L9.13895 5.04418C9.16573 5.12658 9.24252 5.18237 9.32916 5.18237H14.0174C14.2111 5.18237 14.2917 5.4303 14.1349 5.54418L10.3421 8.29984C10.272 8.35077 10.2427 8.44105 10.2694 8.52345L11.7182 12.9822C11.778 13.1665 11.5672 13.3197 11.4104 13.2058L7.61756 10.4502C7.54746 10.3992 7.45254 10.3992 7.38244 10.4502L3.58959 13.2058C3.43285 13.3197 3.22195 13.1665 3.28182 12.9822L4.73056 8.52345C4.75734 8.44105 4.72801 8.35077 4.65791 8.29984L0.865056 5.54418C0.708313 5.4303 0.788868 5.18237 0.982613 5.18237H5.67084C5.75748 5.18237 5.83427 5.12658 5.86105 5.04418L7.30979 0.585411Z" fill="#AFAFAF"/>
</svg>
