<svg width="27" height="26" viewBox="0 0 27 26" fill="none" xmlns="http://www.w3.org/2000/svg">
<path d="M13.1196 1.17082C13.2393 0.802298 13.7607 0.802296 13.8804 1.17082L16.6656 9.74286C16.7192 9.90767 16.8728 10.0193 17.0461 10.0193L26.0592 10.0193C26.4467 10.0193 26.6078 10.5151 26.2944 10.7429L19.0025 16.0407C18.8624 16.1425 18.8037 16.3231 18.8572 16.4879L21.6425 25.0599C21.7622 25.4285 21.3404 25.7349 21.0269 25.5071L13.7351 20.2093C13.5949 20.1075 13.4051 20.1075 13.2649 20.2093L5.97307 25.5071C5.65959 25.7349 5.2378 25.4285 5.35754 25.0599L8.14276 16.4879C8.19631 16.3231 8.13765 16.1425 7.99745 16.0407L0.705638 10.7429C0.392153 10.5151 0.553264 10.0193 0.940754 10.0193L9.95393 10.0193C10.1272 10.0193 10.2808 9.90767 10.3344 9.74286L13.1196 1.17082Z" fill="white"/>
</svg>
